<mxfile host="app.diagrams.net" modified="2024-03-05T15:43:14.914Z" agent="Mozilla/5.0 (Windows NT 10.0; Win64; x64) AppleWebKit/537.36 (KHTML, like Gecko) Chrome/122.0.0.0 Safari/537.36" version="23.1.7" etag="JFzLRhIwqDFs2gHj1u8y" type="github">
  <diagram name="Page-1" id="-VNo3Qkicl_mFRUMf00s">
    <mxGraphModel>
      <root>
        <mxCell id="0" />
        <mxCell id="1" parent="0" />
      </root>
    </mxGraphModel>
  </diagram>
</mxfile>
